HIERARCHY
ROOT newVegas:Hips
{
	OFFSET 0.000000 96.479958 0.000000
	CHANNELS 6 Xposition Yposition Zposition Xrotation Yrotation Zrotation
	JOINT newVegas:Pelvis
	{
		OFFSET 0.000000 0.000000 0.000000
		CHANNELS 3 Xrotation Yrotation Zrotation
		JOINT newVegas:LeftUpLeg
		{
			OFFSET 18.735201 -5.666702 -4.541200
			CHANNELS 3 Xrotation Yrotation Zrotation
			JOINT newVegas:LeftLeg
			{
				OFFSET -0.021200 -31.938179 0.493100
				CHANNELS 3 Xrotation Yrotation Zrotation
				JOINT newVegas:LeftFoot
				{
					OFFSET 0.021200 -31.938179 -4.336299
					CHANNELS 3 Xrotation Yrotation Zrotation
					JOINT newVegas:LeftToeBase
					{
						OFFSET 0.943001 -26.722000 15.023500
						CHANNELS 3 Xrotation Yrotation Zrotation
						End Site
						{
							OFFSET 0.000000 30.670183 0.000000
						}
					}
				}
				JOINT newVegas:Left_PantLeg
				{
					OFFSET 0.663870 -9.044666 -1.108900
					CHANNELS 3 Xrotation Yrotation Zrotation
					End Site
					{
						OFFSET 1.415995 20.635357 0.000000
					}
				}
			}
		}
		JOINT newVegas:RightUpLeg
		{
			OFFSET -18.735201 -5.666702 -4.541200
			CHANNELS 3 Xrotation Yrotation Zrotation
			JOINT newVegas:RightLeg
			{
				OFFSET 0.018946 -31.938133 0.493100
				CHANNELS 3 Xrotation Yrotation Zrotation
				JOINT newVegas:RightFoot
				{
					OFFSET -0.018946 -31.938126 -4.336299
					CHANNELS 3 Xrotation Yrotation Zrotation
					JOINT newVegas:RightToeBase
					{
						OFFSET -0.943001 -26.722004 15.023500
						CHANNELS 3 Xrotation Yrotation Zrotation
						End Site
						{
							OFFSET 0.000000 30.670187 0.000000
						}
					}
				}
				JOINT newVegas:Right_PantLeg
				{
					OFFSET -0.661674 -9.044716 -1.108900
					CHANNELS 3 Xrotation Yrotation Zrotation
					End Site
					{
						OFFSET -1.415958 20.635269 0.000000
					}
				}
			}
		}
	}
	JOINT newVegas:Spine
	{
		OFFSET 0.000000 10.199997 -0.299500
		CHANNELS 3 Xrotation Yrotation Zrotation
		JOINT newVegas:Spine1
		{
			OFFSET 0.000000 11.900002 -1.516600
			CHANNELS 3 Xrotation Yrotation Zrotation
			JOINT newVegas:Spine2
			{
				OFFSET 0.000000 13.600006 -2.842500
				CHANNELS 3 Xrotation Yrotation Zrotation
				JOINT newVegas:Neck
				{
					OFFSET 0.000000 9.624100 -2.890100
					CHANNELS 3 Xrotation Yrotation Zrotation
					JOINT newVegas:Head
					{
						OFFSET 0.000000 14.068802 -1.351900
						CHANNELS 3 Xrotation Yrotation Zrotation
						JOINT newVegas:Hair_Back
						{
							OFFSET 0.000000 3.231903 -17.524799
							CHANNELS 3 Xrotation Yrotation Zrotation
							End Site
							{
								OFFSET 0.000000 19.849884 0.000000
							}
						}
						JOINT newVegas:Hair_Front
						{
							OFFSET 0.000000 31.260406 4.573800
							CHANNELS 3 Xrotation Yrotation Zrotation
							JOINT newVegas:Hair_Front1
							{
								OFFSET 0.000000 2.284103 11.993300
								CHANNELS 3 Xrotation Yrotation Zrotation
								JOINT newVegas:Hair_Front2
								{
									OFFSET 0.000000 2.284103 11.993300
									CHANNELS 3 Xrotation Yrotation Zrotation
									End Site
									{
										OFFSET 0.000000 12.208862 0.000000
									}
								}
							}
						}
						JOINT newVegas:Jowel
						{
							OFFSET 0.000000 -7.458206 6.864100
							CHANNELS 3 Xrotation Yrotation Zrotation
							End Site
							{
								OFFSET 0.000000 19.849884 0.000000
							}
						}
					}
				}
				JOINT newVegas:LeftShoulder
				{
					OFFSET 15.263000 10.923401 -0.547700
					CHANNELS 3 Xrotation Yrotation Zrotation
					JOINT newVegas:LeftArm
					{
						OFFSET 25.438599 -2.830597 -13.032500
						CHANNELS 3 Xrotation Yrotation Zrotation
						JOINT newVegas:LeftForeArm
						{
							OFFSET 29.960503 0.000000 0.000000
							CHANNELS 3 Xrotation Yrotation Zrotation
							JOINT newVegas:LeftHand
							{
								OFFSET 27.849251 0.000000 0.000000
								CHANNELS 3 Xrotation Yrotation Zrotation
								JOINT newVegas:LeftHandThumb1
								{
									OFFSET 4.487587 -3.305161 6.305391
									CHANNELS 3 Xrotation Yrotation Zrotation
									JOINT newVegas:LeftHandThumb2
									{
										OFFSET 5.480453 -3.164139 3.164143
										CHANNELS 3 Xrotation Yrotation Zrotation
										JOINT newVegas:LeftHandThumb3
										{
											OFFSET 5.159721 -2.978973 2.978967
											CHANNELS 3 Xrotation Yrotation Zrotation
											End Site
											{
												OFFSET 2.494507 5.926697 1.738678
											}
										}
									}
								}
								JOINT newVegas:LeftHandIndex1
								{
									OFFSET 18.578728 -0.527832 5.208049
									CHANNELS 3 Xrotation Yrotation Zrotation
									JOINT newVegas:LeftHandIndex2
									{
										OFFSET 3.192009 0.000000 0.000000
										CHANNELS 3 Xrotation Yrotation Zrotation
										JOINT newVegas:LeftHandIndex3
										{
											OFFSET 3.835129 0.000000 0.000000
											CHANNELS 3 Xrotation Yrotation Zrotation
											End Site
											{
												OFFSET -0.034599 3.816971 0.371180
											}
										}
									}
								}
								JOINT newVegas:LeftHandMiddle1
								{
									OFFSET 18.476105 0.000000 0.000000
									CHANNELS 3 Xrotation Yrotation Zrotation
									JOINT newVegas:LeftHandMiddle2
									{
										OFFSET 3.324875 0.000000 0.000000
										CHANNELS 3 Xrotation Yrotation Zrotation
										JOINT newVegas:LeftHandMiddle3
										{
											OFFSET 4.596550 0.000000 0.000000
											CHANNELS 3 Xrotation Yrotation Zrotation
											End Site
											{
												OFFSET 0.057701 4.578827 0.399218
											}
										}
									}
								}
								JOINT newVegas:LeftHandRing1
								{
									OFFSET 17.732719 0.121887 -4.201567
									CHANNELS 3 Xrotation Yrotation Zrotation
									JOINT newVegas:LeftHandRing2
									{
										OFFSET 2.733170 0.000000 0.000000
										CHANNELS 3 Xrotation Yrotation Zrotation
										JOINT newVegas:LeftHandRing3
										{
											OFFSET 3.178268 0.000000 0.000000
											CHANNELS 3 Xrotation Yrotation Zrotation
											End Site
											{
												OFFSET 0.119102 3.170624 0.185394
											}
										}
									}
								}
								JOINT newVegas:LeftHandPinky1
								{
									OFFSET 15.989624 -0.606689 -7.535461
									CHANNELS 3 Xrotation Yrotation Zrotation
									JOINT newVegas:LeftHandPinky2
									{
										OFFSET 2.538986 0.000000 0.000000
										CHANNELS 3 Xrotation Yrotation Zrotation
										JOINT newVegas:LeftHandPinky3
										{
											OFFSET 2.593102 0.000000 0.000000
											CHANNELS 3 Xrotation Yrotation Zrotation
											End Site
											{
												OFFSET -0.150902 2.584198 0.152708
											}
										}
									}
								}
							}
							JOINT newVegas:Left_Sleeve
							{
								OFFSET 0.267448 -0.649796 0.577675
								CHANNELS 3 Xrotation Yrotation Zrotation
								End Site
								{
									OFFSET 0.000000 15.991241 0.000000
								}
							}
							JOINT newVegas:Left_CapeC
							{
								OFFSET 15.715958 -8.608795 -6.935905
								CHANNELS 3 Xrotation Yrotation Zrotation
								JOINT newVegas:Left_CapeC1
								{
									OFFSET 0.000000 -8.688499 0.000000
									CHANNELS 3 Xrotation Yrotation Zrotation
									End Site
									{
										OFFSET 0.000000 8.688499 0.000000
									}
								}
							}
						}
						JOINT newVegas:Left_CapeB
						{
							OFFSET 26.118385 -8.608795 -7.079235
							CHANNELS 3 Xrotation Yrotation Zrotation
							JOINT newVegas:Left_CapeB1
							{
								OFFSET 0.000000 -8.688499 0.000000
								CHANNELS 3 Xrotation Yrotation Zrotation
								End Site
								{
									OFFSET 0.000000 8.688499 0.000000
								}
							}
						}
						JOINT newVegas:Left_CapeA
						{
							OFFSET 5.115639 -8.608795 -10.395809
							CHANNELS 3 Xrotation Yrotation Zrotation
							JOINT newVegas:Left_CapeA1
							{
								OFFSET 0.000000 -8.688499 0.000000
								CHANNELS 3 Xrotation Yrotation Zrotation
								End Site
								{
									OFFSET 0.000000 8.688499 0.000000
								}
							}
						}
					}
				}
				JOINT newVegas:RightShoulder
				{
					OFFSET -15.263000 10.923401 -0.547700
					CHANNELS 3 Xrotation Yrotation Zrotation
					JOINT newVegas:RightArm
					{
						OFFSET -25.438599 -2.830597 -13.032500
						CHANNELS 3 Xrotation Yrotation Zrotation
						JOINT newVegas:RightForeArm
						{
							OFFSET -29.960503 0.000000 0.000000
							CHANNELS 3 Xrotation Yrotation Zrotation
							JOINT newVegas:RightHand
							{
								OFFSET -27.849251 0.000000 0.000000
								CHANNELS 3 Xrotation Yrotation Zrotation
								JOINT newVegas:RightHandThumb1
								{
									OFFSET -4.487587 -3.305161 6.305391
									CHANNELS 3 Xrotation Yrotation Zrotation
									JOINT newVegas:RightHandThumb2
									{
										OFFSET -5.480453 -3.164139 3.164143
										CHANNELS 3 Xrotation Yrotation Zrotation
										JOINT newVegas:RightHandThumb3
										{
											OFFSET -5.159721 -2.978973 2.978967
											CHANNELS 3 Xrotation Yrotation Zrotation
											End Site
											{
												OFFSET -2.494507 5.926697 1.738678
											}
										}
									}
								}
								JOINT newVegas:RightHandIndex1
								{
									OFFSET -18.578728 -0.527832 5.208049
									CHANNELS 3 Xrotation Yrotation Zrotation
									JOINT newVegas:RightHandIndex2
									{
										OFFSET -3.192009 0.000000 0.000000
										CHANNELS 3 Xrotation Yrotation Zrotation
										JOINT newVegas:RightHandIndex3
										{
											OFFSET -3.835129 0.000000 0.000000
											CHANNELS 3 Xrotation Yrotation Zrotation
											End Site
											{
												OFFSET 0.034599 3.816971 0.371180
											}
										}
									}
								}
								JOINT newVegas:RightHandMiddle1
								{
									OFFSET -18.476105 0.000000 0.000000
									CHANNELS 3 Xrotation Yrotation Zrotation
									JOINT newVegas:RightHandMiddle2
									{
										OFFSET -3.324875 0.000000 0.000000
										CHANNELS 3 Xrotation Yrotation Zrotation
										JOINT newVegas:RightHandMiddle3
										{
											OFFSET -4.596550 0.000000 0.000000
											CHANNELS 3 Xrotation Yrotation Zrotation
											End Site
											{
												OFFSET -0.057701 4.578827 0.399218
											}
										}
									}
								}
								JOINT newVegas:RightHandRing1
								{
									OFFSET -17.732719 0.121887 -4.201567
									CHANNELS 3 Xrotation Yrotation Zrotation
									JOINT newVegas:RightHandRing2
									{
										OFFSET -2.733170 0.000000 0.000000
										CHANNELS 3 Xrotation Yrotation Zrotation
										JOINT newVegas:RightHandRing3
										{
											OFFSET -3.178268 0.000000 0.000000
											CHANNELS 3 Xrotation Yrotation Zrotation
											End Site
											{
												OFFSET -0.119102 3.170624 0.185394
											}
										}
									}
								}
								JOINT newVegas:RightHandPinky1
								{
									OFFSET -15.989624 -0.606689 -7.535461
									CHANNELS 3 Xrotation Yrotation Zrotation
									JOINT newVegas:RightHandPinky2
									{
										OFFSET -2.538986 0.000000 0.000000
										CHANNELS 3 Xrotation Yrotation Zrotation
										JOINT newVegas:RightHandPinky3
										{
											OFFSET -2.593102 0.000000 0.000000
											CHANNELS 3 Xrotation Yrotation Zrotation
											End Site
											{
												OFFSET 0.150902 2.584198 0.152708
											}
										}
									}
								}
							}
							JOINT newVegas:Right_CapeC
							{
								OFFSET -15.715958 -8.608795 -6.935905
								CHANNELS 3 Xrotation Yrotation Zrotation
								JOINT newVegas:Right_CapeC1
								{
									OFFSET 0.000000 -8.688499 0.000000
									CHANNELS 3 Xrotation Yrotation Zrotation
									End Site
									{
										OFFSET 0.000000 8.688499 0.000000
									}
								}
							}
							JOINT newVegas:Right_Sleeve
							{
								OFFSET -0.267448 -0.649994 0.577675
								CHANNELS 3 Xrotation Yrotation Zrotation
								End Site
								{
									OFFSET 0.000000 15.991302 0.000000
								}
							}
						}
						JOINT newVegas:Right_CapeA
						{
							OFFSET -5.115540 -8.608795 -10.395824
							CHANNELS 3 Xrotation Yrotation Zrotation
							JOINT newVegas:Right_CapeA1
							{
								OFFSET 0.000000 -8.688499 0.000000
								CHANNELS 3 Xrotation Yrotation Zrotation
								End Site
								{
									OFFSET 0.000000 8.688499 0.000000
								}
							}
						}
						JOINT newVegas:Right_CapeB
						{
							OFFSET -26.118187 -8.608795 -7.079266
							CHANNELS 3 Xrotation Yrotation Zrotation
							JOINT newVegas:Right_CapeB1
							{
								OFFSET 0.000000 -8.688499 0.000000
								CHANNELS 3 Xrotation Yrotation Zrotation
								End Site
								{
									OFFSET 0.000000 8.688499 0.000000
								}
							}
						}
					}
				}
				JOINT newVegas:Left_Collar
				{
					OFFSET 18.625099 8.655502 8.828100
					CHANNELS 3 Xrotation Yrotation Zrotation
					JOINT newVegas:Left_Collar1
					{
						OFFSET 14.783401 10.540405 -1.259500
						CHANNELS 3 Xrotation Yrotation Zrotation
						End Site
						{
							OFFSET 0.000000 18.199875 0.000000
						}
					}
				}
				JOINT newVegas:Collar_Back
				{
					OFFSET 0.000000 15.630707 -20.132601
					CHANNELS 3 Xrotation Yrotation Zrotation
					End Site
					{
						OFFSET 0.000000 22.523010 0.000000
					}
				}
				JOINT newVegas:Left_Peck
				{
					OFFSET 17.239599 -5.132599 25.482599
					CHANNELS 3 Xrotation Yrotation Zrotation
					End Site
					{
						OFFSET 0.000000 22.523010 0.000000
					}
				}
				JOINT newVegas:Right_Peck
				{
					OFFSET -17.239599 -5.132202 25.482599
					CHANNELS 3 Xrotation Yrotation Zrotation
					End Site
					{
						OFFSET 0.000000 22.523010 0.000000
					}
				}
				JOINT newVegas:Right_Collar
				{
					OFFSET -18.625099 8.655792 8.828100
					CHANNELS 3 Xrotation Yrotation Zrotation
					JOINT newVegas:Right_Collar1
					{
						OFFSET -14.783401 10.539993 -1.259500
						CHANNELS 3 Xrotation Yrotation Zrotation
						End Site
						{
							OFFSET 0.000000 18.199631 0.000000
						}
					}
				}
			}
		}
		JOINT newVegas:Belly
		{
			OFFSET 0.000000 -6.540398 9.014299
			CHANNELS 3 Xrotation Yrotation Zrotation
			End Site
			{
				OFFSET 0.000000 11.566666 0.000000
			}
		}
	}
	JOINT newVegas:ElvisFacialAnim_Joint
	{
		OFFSET 1.000000 -95.330101 -8.825800
		CHANNELS 3 Xrotation Yrotation Zrotation
		End Site
		{
			OFFSET 0.000000 35.315800 0.000000
		}
	}
}
MOTION
Frames: 4
Frame Time: 0.016667
-2.783930 87.822426 2.837283 -6.078101 -42.937947 -3.789441 0.000000 -0.000001 -0.000000 -34.393134 2.849954 16.371212 38.633094 -14.745549 -0.131467 -1.804974 0.989156 -11.110738 -0.000000 0.000001 0.000000 -0.000000 0.000000 0.000000 1.083759 -13.658365 -18.458666 33.743771 -7.727702 -0.244916 -25.561496 -6.503043 21.390699 -0.000000 -0.000000 0.000000 -0.000001 -0.000002 -0.000001 5.850291 4.526139 -1.455027 11.835727 9.038083 -3.084131 11.835732 9.038084 -3.084132 -0.860981 -0.253306 0.048902 -0.860969 -0.253305 0.048900 0.000001 -0.000000 0.000001 -0.860974 -0.253310 0.048903 -0.860983 -0.253302 0.048900 0.000001 -0.000000 0.000000 0.000001 -0.000000 0.000000 1.387435 -0.696990 -7.876279 -14.260092 2.393797 -63.277113 9.865053 -47.524897 5.927945 16.172819 0.916347 18.795316 9.163599 4.814119 -5.499025 -0.335377 0.032568 0.783649 0.000004 0.000001 -0.000001 -0.902032 -6.980926 -3.808454 0.026607 0.806451 -16.418890 -0.000003 -0.000002 0.000000 1.947551 9.681363 -14.539574 -0.461216 -1.564448 -21.881040 0.000002 0.000000 -0.000001 2.605821 14.896552 -31.345234 -0.570642 -2.704772 -32.012052 -0.000004 -0.000000 -0.000003 4.171030 18.494919 -34.987419 -0.706804 -5.788645 -39.372902 0.000002 -0.000003 -0.000000 0.000000 0.000003 -0.000001 0.000000 0.000003 -0.000001 -0.000001 0.000004 -0.000001 0.000002 0.000001 0.000001 0.000002 0.000001 -0.000000 0.000002 0.000001 0.000001 0.000001 0.000001 0.000001 1.410930 9.461508 9.792744 1.220049 -24.270715 60.532920 -6.660696 41.858408 8.043836 6.225276 12.322329 11.673245 -8.895787 -4.903201 -0.383702 7.903372 -19.189688 -2.856921 0.000003 0.000000 0.000001 -1.096331 -1.217225 4.525376 0.141695 -1.115727 16.942600 -0.000001 -0.000000 -0.000000 -0.670814 -2.905547 12.731500 -0.652530 1.804273 30.579515 0.000000 0.000001 0.000001 2.418898 -7.406055 21.762695 -0.995464 3.769852 37.430629 -0.000001 0.000002 0.000001 3.482209 -10.050689 24.322256 -1.467004 7.868279 41.092867 0.000000 0.000003 -0.000002 -0.000003 0.000001 -0.000002 -0.000003 0.000001 -0.000002 -0.000003 0.000001 -0.000001 -0.000000 -0.000001 -0.000002 -0.000000 0.000000 -0.000003 -0.000000 -0.000001 -0.000002 -0.000000 -0.000001 -0.000002 0.000001 -0.000001 0.000001 0.000001 -0.000001 0.000001 0.000001 -0.000001 0.000001 0.000001 -0.000001 0.000001 0.000001 -0.000001 0.000001 0.000001 -0.000001 0.000001 0.000001 -0.000001 0.000001 -0.000000 -0.000003 0.000000 0.000000 -0.000001 -0.000000 
-2.784065 87.819580 2.841313 -6.051363 -43.016019 -3.765429 -0.000000 0.000000 -0.000000 -34.381140 2.850840 16.361276 38.677773 -14.660072 -0.104251 -1.865489 0.996944 -11.125765 -0.000000 -0.000001 0.000000 -0.000000 -0.000002 -0.000000 0.976210 -13.649689 -18.477796 33.798481 -7.654268 -0.305426 -25.570616 -6.506655 21.393191 0.000000 0.000002 0.000000 -0.000001 0.000000 0.000001 5.845360 4.531290 -1.464408 11.826957 9.047789 -3.104680 11.826959 9.047800 -3.104677 -0.870023 -0.258080 0.044881 -0.870022 -0.258083 0.044882 -0.000000 -0.000001 -0.000000 -0.870025 -0.258079 0.044882 -0.870084 -0.258077 0.044879 -0.000002 0.000001 -0.000000 -0.000000 -0.000001 0.000000 1.387392 -0.696825 -7.876266 -14.262251 2.393779 -63.250659 9.848925 -47.561028 5.920512 16.146014 0.904687 18.680745 9.281185 4.985912 -5.486657 -0.249594 0.224365 0.816298 0.000001 -0.000002 -0.000003 -0.895015 -6.979115 -3.983061 0.019738 0.784228 -16.611450 -0.000002 0.000001 -0.000002 1.943563 9.666288 -14.728980 -0.467826 -1.583377 -22.065394 0.000001 -0.000001 -0.000000 2.597704 14.883713 -31.520309 -0.579615 -2.719022 -32.210472 -0.000000 0.000001 0.000000 4.160769 18.488405 -35.170492 -0.709424 -5.791700 -39.559254 0.000000 -0.000000 0.000002 -0.000002 -0.000003 0.000002 -0.000002 -0.000003 0.000002 -0.000003 -0.000002 0.000002 0.000001 0.000000 0.000001 0.000001 0.000002 0.000000 0.000001 0.000000 0.000001 0.000001 0.000001 0.000001 1.398782 9.503308 9.802044 1.235467 -24.253387 60.503598 -6.635568 41.828604 8.061757 6.205718 12.287847 11.583879 -8.744218 -4.912961 -0.267402 7.890828 -19.193889 -2.875778 0.000000 -0.000000 -0.000001 -1.094934 -1.224536 4.426562 0.143561 -1.121787 16.879889 0.000001 -0.000001 -0.000000 -0.667431 -2.920381 12.632995 -0.649449 1.799063 30.481881 -0.000001 0.000000 0.000001 2.423727 -7.418799 21.676008 -0.988832 3.761203 37.329374 -0.000000 0.000001 -0.000001 3.489131 -10.065734 24.227629 -1.459267 7.863648 40.993607 -0.000001 0.000001 0.000001 0.000002 0.000001 0.000000 -0.000000 0.000000 -0.000003 0.000002 0.000000 0.000000 0.000000 -0.000003 -0.000003 0.000000 -0.000003 -0.000004 0.000000 -0.000003 -0.000003 0.000000 -0.000003 -0.000003 0.000002 -0.000000 0.000001 0.000002 -0.000000 0.000001 0.000002 -0.000000 0.000001 0.000002 -0.000000 0.000001 0.000002 -0.000000 0.000001 0.000002 -0.000000 0.000001 0.000002 -0.000000 0.000001 0.000000 0.000001 -0.000000 -0.000000 0.000000 -0.000000 
-2.786008 87.826065 2.838775 -6.021324 -43.082036 -3.732606 -0.000000 -0.000002 -0.000000 -34.350087 2.854058 16.342877 38.648755 -14.578106 -0.073609 -1.880372 0.999963 -11.167111 -0.000000 0.000000 0.000000 -0.000000 0.000003 0.000000 0.892399 -13.633257 -18.486400 33.816349 -7.616860 -0.366534 -25.559265 -6.506626 21.403557 -0.000000 0.000002 -0.000000 0.000001 0.000003 -0.000000 5.841513 4.528212 -1.471666 11.819972 9.041231 -3.121165 11.819967 9.041239 -3.121163 -0.877789 -0.258500 0.040577 -0.877791 -0.258505 0.040576 -0.000000 -0.000002 0.000001 -0.877783 -0.258519 0.040582 -0.877700 -0.258484 0.040573 -0.000001 0.000002 -0.000001 -0.000000 -0.000002 0.000001 1.389715 -0.709913 -7.876829 -14.244239 2.394029 -63.227239 9.904598 -47.573135 5.947293 16.178293 0.914628 18.773777 9.414854 5.159737 -5.469223 -0.170200 0.412552 0.856131 0.000005 -0.000001 0.000001 -0.885474 -6.977778 -4.153073 0.012765 0.761533 -16.807786 0.000005 0.000001 -0.000001 1.939562 9.651371 -14.916312 -0.474092 -1.601161 -22.238804 0.000002 0.000001 -0.000000 2.589849 14.871366 -31.688854 -0.588516 -2.733073 -32.406031 0.000005 0.000001 0.000001 4.151079 18.482360 -35.342650 -0.711829 -5.794531 -39.734540 0.000005 -0.000003 -0.000004 0.000001 -0.000002 0.000001 0.000001 -0.000002 0.000001 0.000000 -0.000001 0.000002 0.000000 0.000002 0.000003 0.000000 0.000002 0.000003 0.000000 0.000002 0.000003 0.000001 0.000002 0.000003 1.393258 9.523885 9.813709 1.197310 -24.211979 60.500682 -6.605041 41.712703 8.037634 6.258863 12.244936 11.498252 -8.538363 -4.895345 -0.106984 7.856104 -19.205508 -2.927850 -0.000000 -0.000002 -0.000001 -1.093476 -1.232164 4.323050 0.143914 -1.122943 16.867309 0.000001 0.000001 -0.000001 -0.663460 -2.937936 12.524955 -0.646096 1.793347 30.374534 0.000000 0.000002 0.000001 2.430985 -7.439394 21.599228 -0.980319 3.750012 37.198918 -0.000000 0.000002 0.000004 3.495807 -10.078052 24.121585 -1.450816 7.858626 40.884624 -0.000001 -0.000000 -0.000001 0.000001 0.000000 0.000002 -0.000001 0.000001 -0.000000 0.000001 -0.000000 0.000002 -0.000000 0.000000 0.000000 -0.000000 0.000001 -0.000000 -0.000000 0.000000 0.000000 -0.000000 0.000001 -0.000001 -0.000001 0.000002 -0.000000 -0.000001 0.000002 -0.000000 -0.000001 0.000002 -0.000000 -0.000001 0.000002 -0.000000 -0.000001 0.000002 -0.000000 -0.000001 0.000002 -0.000000 -0.000001 0.000002 -0.000000 -0.000000 0.000000 -0.000000 -0.000000 -0.000002 -0.000000 
-2.785941 87.825554 2.840175 -5.971129 -43.154149 -3.688527 -0.000000 -0.000001 -0.000000 -34.351081 2.855499 16.337720 38.650729 -14.505201 -0.060042 -1.911959 1.005111 -11.193503 -0.000000 0.000001 -0.000000 0.000000 0.000001 -0.000000 0.782476 -13.609584 -18.502409 33.855062 -7.573216 -0.424749 -25.555170 -6.511372 21.417667 -0.000000 0.000002 0.000000 -0.000001 -0.000001 0.000002 5.836004 4.520694 -1.476665 11.809250 9.026355 -3.132225 11.809252 9.026349 -3.132227 -0.883893 -0.252505 0.031737 -0.883902 -0.252514 0.031742 -0.000001 0.000000 -0.000000 -0.883895 -0.252519 0.031739 -0.883885 -0.252494 0.031737 -0.000002 0.000001 0.000000 -0.000001 0.000000 0.000000 1.389215 -0.712565 -7.883962 -14.233991 2.393106 -63.219213 9.867931 -47.596289 5.922716 16.138890 0.892874 18.667030 9.527661 5.320409 -5.445004 -0.082358 0.613072 0.892579 -0.000000 -0.000001 -0.000001 -0.878604 -6.976121 -4.318740 0.006552 0.741421 -16.982085 -0.000002 -0.000001 -0.000002 1.935620 9.636910 -15.098099 -0.480063 -1.617972 -22.403384 0.000002 -0.000001 0.000001 2.581146 14.857781 -31.874734 -0.595908 -2.743339 -32.579500 -0.000001 0.000001 -0.000001 4.139514 18.469574 -35.515642 -0.714234 -5.797217 -39.900100 0.000001 0.000000 -0.000001 0.000000 0.000000 -0.000002 0.000000 0.000000 -0.000002 -0.000001 0.000001 -0.000002 -0.000001 0.000000 -0.000001 -0.000001 -0.000000 -0.000003 -0.000001 0.000000 -0.000001 -0.000000 0.000000 -0.000001 1.393269 9.550951 9.804896 1.182778 -24.200769 60.514342 -6.580801 41.627254 8.001245 6.320976 12.185647 11.442694 -8.394743 -4.917734 0.003153 7.849041 -19.207863 -2.938456 0.000000 -0.000003 0.000001 -1.091889 -1.240390 4.212002 0.146035 -1.129848 16.796166 -0.000001 0.000002 0.000001 -0.661688 -2.945908 12.408733 -0.642768 1.787663 30.268096 0.000002 0.000000 0.000001 2.436799 -7.454667 21.485123 -0.971956 3.739015 37.070643 0.000002 0.000004 0.000004 3.502980 -10.091385 24.007336 -1.441686 7.853054 40.767104 0.000000 -0.000002 0.000001 -0.000001 -0.000000 0.000001 -0.000003 -0.000000 0.000001 -0.000001 -0.000000 0.000001 -0.000000 0.000002 0.000002 -0.000000 0.000003 0.000001 -0.000000 0.000002 0.000002 0.000000 0.000003 0.000000 -0.000002 -0.000001 -0.000001 -0.000002 -0.000001 -0.000001 -0.000002 -0.000001 -0.000001 -0.000002 -0.000001 -0.000001 -0.000002 -0.000001 -0.000001 -0.000002 -0.000001 -0.000001 -0.000002 -0.000001 -0.000001 0.000000 0.000000 0.000000 -0.000000 -0.000001 -0.000000 
